<?xml version="1.0" standalone="no"?>
<!DOCTYPE svg PUBLIC "-//W3C//DTD SVG 20010904//EN"
 "http://www.w3.org/TR/2001/REC-SVG-20010904/DTD/svg10.dtd">
<svg version="1.0" xmlns="http://www.w3.org/2000/svg"
 width="325.000000pt" height="325.000000pt" viewBox="0 0 325.000000 325.000000"
 preserveAspectRatio="xMidYMid meet">
<metadata>
Created by potrace 1.11, written by Peter Selinger 2001-2013
</metadata>
<g transform="translate(0.000000,325.000000) scale(0.100000,-0.100000)"
fill="#000000" stroke="none">
<path d="M905 3174 c-51 -47 -74 -68 -235 -214 -51 -47 -103 -94 -115 -105
-11 -11 -63 -58 -115 -105 -52 -47 -107 -96 -121 -110 -14 -14 -59 -54 -99
-90 -40 -36 -85 -76 -99 -90 -14 -14 -45 -42 -69 -62 l-42 -38 1148 0 1148 0
41 38 c83 77 213 194 235 214 13 10 43 38 69 61 69 64 236 217 309 282 36 33
70 64 76 70 6 5 29 26 50 45 21 20 67 61 101 93 l63 57 -1148 0 -1147 0 -50
-46z"/>
<path d="M3219 3143 c-14 -16 -219 -210 -304 -287 -16 -15 -84 -79 -150 -141
-66 -62 -139 -130 -161 -151 -23 -22 -96 -90 -163 -153 l-121 -114 0 -1129 c0
-665 4 -1128 9 -1126 5 1 67 58 138 124 70 67 144 136 163 154 76 70 276 257
315 295 23 22 93 87 155 145 62 58 121 114 132 124 17 19 18 65 18 1148 0 620
-3 1128 -8 1128 -4 0 -15 -8 -23 -17z"/>
<path d="M0 1165 l0 -1125 1125 0 1125 0 0 1125 0 1125 -1125 0 -1125 0 0
-1125z"/>
</g>
</svg>
